<?xml version="1.0" standalone="no"?>
<!DOCTYPE svg PUBLIC "-//W3C//DTD SVG 20010904//EN"
 "http://www.w3.org/TR/2001/REC-SVG-20010904/DTD/svg10.dtd">
<svg version="1.0" xmlns="http://www.w3.org/2000/svg"
 width="200.000000pt" height="200.000000pt" viewBox="0 0 200.000000 200.000000"
 preserveAspectRatio="xMidYMid meet">

<g transform="translate(0.000000,200.000000) scale(0.100000,-0.100000)"
fill="#000000" stroke="none">
<path d="M260 1000 l0 -740 435 0 435 0 0 445 0 445 -85 0 -85 0 0 -370 0
-370 -275 0 -275 0 0 590 0 590 105 0 105 0 0 75 0 75 -180 0 -180 0 0 -740z"/>
<path d="M652 1208 l3 -533 100 -3 c55 -2 115 0 133 3 l32 6 0 89 0 90 -35 0
-35 0 0 365 0 365 370 0 370 0 0 -590 0 -590 -210 0 -210 0 0 -75 0 -75 285 0
285 0 0 740 0 740 -545 0 -545 0 2 -532z"/>
<path d="M960 1275 l0 -75 85 0 85 0 0 75 0 75 -85 0 -85 0 0 -75z"/>
<path d="M1160 770 l0 -90 140 0 140 0 0 90 0 90 -140 0 -140 0 0 -90z"/>
</g>
</svg>
